<svg xmlns="http://www.w3.org/2000/svg" xmlns:xlink="http://www.w3.org/1999/xlink" width="110.07" height="105.17" preserveAspectRatio="xMidYMid meet" version="1.1" viewBox="7.872 -0.044 114.069 109.171"><defs><path id="atddI89gG" d="m72.2 24.74v35.05l24.28-24.27-24.28-10.78z"/><path id="bb3qzAfJB" d="m72.2 24.74v35.05l24.28-24.27-24.28-10.78z"/><path id="e1ioSjV5V4" d="m55.61 50.33l-29.76 55.8 42.82-42.83-13.06-12.97z"/><path id="c5falcEk4l" d="m55.61 50.33l-29.76 55.8 42.82-42.83-13.06-12.97z"/><path id="c4WTNmlMAG" d="m70.13 23.1l-61.26-22.14 61.26 60.88v-38.74z"/><path id="d19wmjc6Mu" d="m70.13 23.1l-61.26-22.14 61.26 60.88v-38.74z"/><path id="c22Nre6N3" d="m118.94 43.26l-10.04-20.16h-35.3l45.34 20.16z"/><path id="a5sQQTI8o" d="m118.94 43.26l-10.04-20.16h-35.3l45.34 20.16z"/></defs><use fill="#82bea0" xlink:href="#atddI89gG"/><use fill-opacity="0" stroke="#000" stroke-opacity="0" xlink:href="#atddI89gG"/><use fill="#000" fill-opacity="0" xlink:href="#bb3qzAfJB"/><use fill-opacity="0" stroke="#000" stroke-opacity="0" xlink:href="#bb3qzAfJB"/><use fill="#82bea0" xlink:href="#e1ioSjV5V4"/><use fill-opacity="0" stroke="#000" stroke-opacity="0" xlink:href="#e1ioSjV5V4"/><use fill="#000" fill-opacity="0" xlink:href="#c5falcEk4l"/><use fill-opacity="0" stroke="#000" stroke-opacity="0" xlink:href="#c5falcEk4l"/><use fill="#82bea0" xlink:href="#c4WTNmlMAG"/><use fill-opacity="0" stroke="#000" stroke-opacity="0" xlink:href="#c4WTNmlMAG"/><use fill="#000" fill-opacity="0" xlink:href="#d19wmjc6Mu"/><use fill-opacity="0" stroke="#000" stroke-opacity="0" xlink:href="#d19wmjc6Mu"/><use fill="#fa6441" xlink:href="#c22Nre6N3"/><use fill-opacity="0" stroke="#000" stroke-opacity="0" xlink:href="#c22Nre6N3"/><use fill="#000" fill-opacity="0" xlink:href="#a5sQQTI8o"/><use fill-opacity="0" stroke="#000" stroke-opacity="0" xlink:href="#a5sQQTI8o"/></svg>